<?xml version="1.0" encoding="UTF-8" standalone="no"?>
<!-- Created with Inkscape (http://www.inkscape.org/) -->

<svg
   width="210mm"
   height="297mm"
   viewBox="0 0 210 297"
   version="1.1"
   id="svg5"
   inkscape:version="1.2.1 (9c6d41e, 2022-07-14)"
   sodipodi:docname="candycorn.svg"
   xmlns:inkscape="http://www.inkscape.org/namespaces/inkscape"
   xmlns:sodipodi="http://sodipodi.sourceforge.net/DTD/sodipodi-0.dtd"
   xmlns="http://www.w3.org/2000/svg"
   xmlns:svg="http://www.w3.org/2000/svg">
  <sodipodi:namedview
     id="namedview7"
     pagecolor="#505050"
     bordercolor="#eeeeee"
     borderopacity="1"
     inkscape:showpageshadow="0"
     inkscape:pageopacity="0"
     inkscape:pagecheckerboard="0"
     inkscape:deskcolor="#505050"
     inkscape:document-units="mm"
     showgrid="false"
     inkscape:zoom="2.1049745"
     inkscape:cx="740.38902"
     inkscape:cy="743.00188"
     inkscape:window-width="1920"
     inkscape:window-height="1031"
     inkscape:window-x="0"
     inkscape:window-y="25"
     inkscape:window-maximized="1"
     inkscape:current-layer="layer3" />
  <defs
     id="defs2" />
  <g
     inkscape:label="Layer 1"
     inkscape:groupmode="layer"
     id="layer1"
     style="display:inline">
    <path
       style="fill:#ce8433;fill-opacity:1;stroke:none;stroke-width:2.80942;stroke-dasharray:none;stroke-opacity:1"
       d="M 130.49323,2.6705815 C 95.622845,2.7403925 88.975168,57.002577 77.689682,83.849331 43.664835,164.79013 1.0469022,240.22369 14.777389,263.48276 33.933347,295.93242 182.87558,307.28107 203.54406,266.5265 217.65003,238.71205 180.19063,149.76488 173.09885,112.297 165.99965,74.789883 162.48928,2.6065335 130.49323,2.6705815 Z"
       id="path113"
       sodipodi:nodetypes="ssssss" />
  </g>
  <g
     inkscape:groupmode="layer"
     id="layer2"
     inkscape:label="Layer 2">
    <path
       style="display:inline;fill:#e7d4b4;fill-opacity:1;stroke:none;stroke-width:2.80942;stroke-dasharray:none;stroke-opacity:1"
       d="M 130.55564,2.5314535 C 95.685273,2.6012646 89.037581,56.863443 77.752096,83.710197 60.739677,124.18059 83.203404,68.916908 70.01212,100.80028 c 0,0 52.41957,39.48009 103.14916,11.35758 C 166.06207,74.650764 162.55171,2.4674041 130.55564,2.5314535 Z"
       id="path113-3"
       sodipodi:nodetypes="ssccs" />
  </g>
  <g
     inkscape:groupmode="layer"
     id="layer3"
     inkscape:label="Layer 3">
    <path
       style="display:inline;fill:#e35c26;fill-opacity:1;stroke:none;stroke-width:2.80942;stroke-dasharray:none;stroke-opacity:1"
       d="m 29.209467,193.43652 c -13.191277,31.88336 -22.7754121,60.35527 -15.91017,71.9848 19.155958,32.44967 165.728203,42.49889 188.780543,3.04373 8.95671,-15.32981 2.79002,-45.26314 -5.69806,-75.66022 -80.19896,50.43575 -167.172313,0.63169 -167.172313,0.63169 z"
       id="path113-6"
       sodipodi:nodetypes="csscc" />
  </g>
</svg>
